<?xml version="1.0" encoding="utf-8"?>
<!-- Generator: Adobe Illustrator 23.0.0, SVG Export Plug-In . SVG Version: 6.00 Build 0)  -->
<svg version="1.1" id="图层_1" xmlns="http://www.w3.org/2000/svg" xmlns:xlink="http://www.w3.org/1999/xlink" x="0px" y="0px"
	 viewBox="0 0 1024 1024" style="enable-background:new 0 0 1024 1024;" xml:space="preserve">
<style type="text/css">
	.st0{fill:url(#SVGID_1_);}
	.st1{fill:url(#SVGID_2_);}
	.st2{fill:url(#SVGID_3_);}
	.st3{fill:url(#SVGID_4_);}
</style>
<g>
	<g>
		
			<linearGradient id="SVGID_1_" gradientUnits="userSpaceOnUse" x1="676.223" y1="-454.8962" x2="827.2607" y2="-198.7887" gradientTransform="matrix(1 0 0 1 -516.3041 843.0142)">
			<stop  offset="0.1672" style="stop-color:#4A6EFC"/>
			<stop  offset="1" style="stop-color:#05D2DD"/>
		</linearGradient>
		<path class="st0" d="M307.36,307.02l-186.69-68.09c-16.25-5.93-29.6-18.83-34.14-35.52c-7.43-27.3,7.43-54.18,32.44-63.31
			l-0.01,0.01l-11.82,4.45c-39.96,15.29-66.49,53.57-66.49,96.47v295.37c0,40.84,25.53,77.33,63.9,91.32l170.68,62.25
			c48.36,17.64,99.53-18.17,99.53-69.64v-217C374.75,360.25,347.83,321.78,307.36,307.02z"/>
		
			<linearGradient id="SVGID_2_" gradientUnits="userSpaceOnUse" x1="997.0989" y1="-834.6068" x2="548.6677" y2="-210.5015" gradientTransform="matrix(1 0 0 1 -516.3041 843.0142)">
			<stop  offset="0.0453" style="stop-color:#4C6DFC"/>
			<stop  offset="1" style="stop-color:#8F68FC"/>
		</linearGradient>
		<path class="st1" d="M437.65,24.93l-333.1,120.45c-38.37,13.99-63.9,50.48-63.9,91.32v295.37v0c0,42.9,26.53,81.18,66.49,96.47
			l11.82,4.45l0.01,0.01c-20.61-7.52-34.32-27.1-34.35-49.04c-0.03-21.99,13.7-41.64,34.36-49.17l347.21-125.6
			c46.6-17,77.61-61.31,77.61-110.92V99.21C543.8,44.31,489.22,6.12,437.65,24.93z"/>
	</g>
	<g>
		
			<linearGradient id="SVGID_3_" gradientUnits="userSpaceOnUse" x1="11717.3096" y1="-3586.23" x2="11868.3477" y2="-3330.1226" gradientTransform="matrix(-1 0 0 -1 12581.3906 -2950.3479)">
			<stop  offset="0.1672" style="stop-color:#4A6EFC"/>
			<stop  offset="1" style="stop-color:#05D2DD"/>
		</linearGradient>
		<path class="st2" d="M716.64,716.98l186.69,68.09c16.25,5.93,29.6,18.83,34.14,35.52c7.43,27.3-7.43,54.18-32.44,63.31l0.01-0.01
			l11.82-4.45c39.96-15.29,66.49-53.57,66.49-96.47V487.61c0-40.84-25.53-77.33-63.9-91.32l-170.68-62.25
			c-48.36-17.64-99.53,18.17-99.53,69.64v217C649.25,663.75,676.17,702.22,716.64,716.98z"/>
		
			<linearGradient id="SVGID_4_" gradientUnits="userSpaceOnUse" x1="12038.1855" y1="-3965.9407" x2="11589.7549" y2="-3341.8354" gradientTransform="matrix(-1 0 0 -1 12581.3906 -2950.3479)">
			<stop  offset="0.0453" style="stop-color:#4C6DFC"/>
			<stop  offset="1" style="stop-color:#8F68FC"/>
		</linearGradient>
		<path class="st3" d="M586.35,999.07l333.1-120.45c38.37-13.99,63.9-50.48,63.9-91.32V491.92v0c0-42.9-26.53-81.18-66.49-96.47
			L905.04,391l-0.01-0.01c20.61,7.52,34.32,27.1,34.35,49.04c0.03,21.99-13.7,41.64-34.36,49.17l-347.21,125.6
			c-46.6,17-77.61,61.31-77.61,110.92v199.07C480.2,979.69,534.78,1017.88,586.35,999.07z"/>
	</g>
</g>
</svg>
